<?xml version="1.0" encoding="UTF-8" standalone="no"?>
<svg
   width="36"
   height="36"
   viewBox="0 0 1792 1792"
   fill="#38de78"
   version="1.1"
   id="svg1"
   sodipodi:docname="icon_percent.svg"
   inkscape:export-filename="icon_percent.png"
   inkscape:export-xdpi="96"
   inkscape:export-ydpi="96"
   inkscape:version="1.4.2 (ebf0e940, 2025-05-08)"
   xmlns:inkscape="http://www.inkscape.org/namespaces/inkscape"
   xmlns:sodipodi="http://sodipodi.sourceforge.net/DTD/sodipodi-0.dtd"
   xmlns="http://www.w3.org/2000/svg"
   xmlns:svg="http://www.w3.org/2000/svg">
  <defs
     id="defs1" />
  <sodipodi:namedview
     id="namedview1"
     pagecolor="#ffffff"
     bordercolor="#000000"
     borderopacity="0.25"
     inkscape:showpageshadow="2"
     inkscape:pageopacity="0.0"
     inkscape:pagecheckerboard="0"
     inkscape:deskcolor="#d1d1d1"
     inkscape:zoom="0.72222222"
     inkscape:cx="18"
     inkscape:cy="18"
     inkscape:window-width="1472"
     inkscape:window-height="895"
     inkscape:window-x="0"
     inkscape:window-y="33"
     inkscape:window-maximized="1"
     inkscape:current-layer="svg1" />
  <path
     d="M1408 1280q0-52-38-90t-90-38-90 38-38 90 38 90 90 38 90-38 38-90zm-768-768q0-52-38-90t-90-38-90 38-38 90 38 90 90 38 90-38 38-90zm1024 768q0 159-112.5 271.5t-271.5 112.5-271.5-112.5-112.5-271.5 112.5-271.5 271.5-112.5 271.5 112.5 112.5 271.5zm-96-1088q0 20-13 38l-1056 1408q-19 26-51 26h-160q-26 0-45-19t-19-45q0-20 13-38l1056-1408q19-26 51-26h160q26 0 45 19t19 45zm-672 320q0 159-112.5 271.5t-271.5 112.5-271.5-112.5-112.5-271.5 112.5-271.5 271.5-112.5 271.5 112.5 112.5 271.5z"
     id="path1" />
</svg>
